# xmcd
#
# Track frame offsets:
#	150
#	16760
#	29935
#	45972
#	59776
#	74153
#	91287
#	105973
#	122429
#	140164
#	153333
#	169174
#	187380
#	200999
#	217564
#
# Disc length: 3159 seconds
# Revision: 1
# Processed by: cddbd v1.5.2PL0 Copyright (c) Steve Scherf et al.
# Submitted via: dBpowerAMP V12.0
#
DISCID=df0c550f
DTITLE=Cash On Delivery - Echoes Of Leaving
DYEAR=2007
DGENRE=Country
TTITLE0=When Do I Get To Be Me
TTITLE1=As Good As It Is
TTITLE2=The Girl With Eyes Like Stars
TTITLE3=Preaching
TTITLE4=That's The Way Love Goes
TTITLE5=Heart To Hide
TTITLE6=She Thinks I Still Care
TTITLE7=Echoes Of Leaving
TTITLE8=Hard To Forget
TTITLE9=Baby In The Dark
TTITLE10=It Never Used To Hurt So Bad
TTITLE11=I Know You
TTITLE12=Stupidville
TTITLE13=Because Of Me
TTITLE14=Jolene
EXTD=
EXTT0=
EXTT1=
EXTT2=
EXTT3=
EXTT4=
EXTT5=
EXTT6=
EXTT7=
EXTT8=
EXTT9=
EXTT10=
EXTT11=
EXTT12=
EXTT13=
EXTT14=
PLAYORDER=
